<svg width="26" height="26" viewBox="0 0 26 26" fill="none" xmlns="http://www.w3.org/2000/svg">
<path d="M22.9999 1H2.99999C1.89543 1 1 1.89543 1 2.99999V22.9999C1 24.1045 1.89543 24.9999 2.99999 24.9999H22.9999C24.1045 24.9999 24.9999 24.1045 24.9999 22.9999V2.99999C24.9999 1.89543 24.1045 1 22.9999 1Z" stroke="#484848" stroke-width="1.5" stroke-linecap="round" stroke-linejoin="round"/>
<path d="M8.99998 12.3333C10.8409 12.3333 12.3333 10.8409 12.3333 8.99998C12.3333 7.15905 10.8409 5.66665 8.99998 5.66665C7.15905 5.66665 5.66665 7.15905 5.66665 8.99998C5.66665 10.8409 7.15905 12.3333 8.99998 12.3333Z" stroke="#484848" stroke-width="1.5" stroke-linecap="round" stroke-linejoin="round"/>
<path d="M15.5267 14.4796C16.0709 13.7512 17.1685 13.7692 17.6886 14.515L23.5384 22.904C24.1547 23.7879 23.5223 25 22.4447 25H7.66665L15.5267 14.4796Z" stroke="#484848" stroke-width="1.5" stroke-linecap="round" stroke-linejoin="round"/>
</svg>
