<svg width="22" height="22" viewBox="0 0 22 22" fill="none" xmlns="http://www.w3.org/2000/svg">
<path d="M11 21C16.5229 21 21 16.5229 21 11C21 5.47715 16.5229 1 11 1C5.47715 1 1 5.47715 1 11C1 16.5229 5.47715 21 11 21Z" stroke="#333333" stroke-width="1.5" stroke-linejoin="round"/>
<path d="M14.5 14.5C14.5 14.5 13.5 16.5 11 16.5C8.5 16.5 7.5 14.5 7.5 14.5" stroke="#333333" stroke-width="1.5" stroke-linecap="round" stroke-linejoin="round"/>
<path d="M9.5 9.5C9.5 9.5 9 7.5 7.5 7.5C6 7.5 5.5 9.5 5.5 9.5" stroke="#333333" stroke-width="1.5" stroke-linecap="round" stroke-linejoin="round"/>
<path d="M16.5 9.5C16.5 9.5 16 7.5 14.5 7.5C13 7.5 12.5 9.5 12.5 9.5" stroke="#333333" stroke-width="1.5" stroke-linecap="round" stroke-linejoin="round"/>
</svg>
